<?xml version="1.0" encoding="UTF-8" standalone="no"?>
<!-- Created with Inkscape (http://www.inkscape.org/) -->

<svg
   version="1.1"
   id="svg1"
   width="680.45984"
   height="1093.192"
   viewBox="0 0 680.45984 1093.192"
   sodipodi:docname="man34.svg"
   inkscape:version="1.3.1 (9b9bdc1480, 2023-11-25, custom)"
   xmlns:inkscape="http://www.inkscape.org/namespaces/inkscape"
   xmlns:sodipodi="http://sodipodi.sourceforge.net/DTD/sodipodi-0.dtd"
   xmlns="http://www.w3.org/2000/svg"
   xmlns:svg="http://www.w3.org/2000/svg">
  <defs
     id="defs1" />
  <sodipodi:namedview
     id="namedview1"
     pagecolor="#ffffff"
     bordercolor="#000000"
     borderopacity="0.25"
     inkscape:showpageshadow="2"
     inkscape:pageopacity="0.0"
     inkscape:pagecheckerboard="0"
     inkscape:deskcolor="#d1d1d1"
     showgrid="false"
     inkscape:zoom="0.3076406"
     inkscape:cx="76.387837"
     inkscape:cy="224.28769"
     inkscape:window-width="1920"
     inkscape:window-height="1032"
     inkscape:window-x="0"
     inkscape:window-y="25"
     inkscape:window-maximized="1"
     inkscape:current-layer="layer1" />
  <g
     inkscape:groupmode="layer"
     id="layer1"
     inkscape:label="Layer 1"
     transform="translate(-385.0117,-72.814755)">
    <path
       style="fill:#333333"
       d="m 512.29248,247.62935 1.36525,5.32738 -4.285,34.31211 -3.99343,2.49027 -31.63426,1.02036 4.59219,6.7309 11.27193,14.45003 6.62836,12.12697 1.58401,10.77831 2.83926,35.59168 4.62671,14.80904 3.00896,7.18063 -5.14356,1.8568 c 0,0 -10.45469,4.08822 -11.6426,3.82026 -1.1879,-0.26795 -25.99754,0.86893 -25.99754,0.86893 l -20.26568,-2.2729 -22.37447,-6.46341 -20.356,-10.11062 -14.61597,-8.92064 12.99893,-24.69956 17.91774,-32.39 10.14305,-27.6546 11.26533,-34.38881 1.9907,-13.39034 5.5984,-0.75931 34.6043,5.51959 z"
       id="path10" />
    <path
       id="path9"
       style="fill:#ffd42a"
       d="m 516.67188,254.2793 -2.72852,13.33203 0.12891,11.76953 5.3457,2.30859 57.87695,6.58594 64.53516,7.15039 18.33008,2.58399 19.17578,1.69726 3.11914,-10.75391 -0.77344,-14.14648 -7.04102,-2.19336 -14.74609,-2.23633 -41.03906,-4.04492 -64.2793,-8.1543 z m 260.65234,32.98828 0.51562,10.59765 6.20899,13.02539 8.10742,2.16211 88.77734,11.54297 70.26172,10.5586 12.3418,-21.875 -5.21484,-2.51563 -87.17774,-12.74219 -39.48828,-5.91015 z m 276.34958,34.1875 -6.6289,3.50586 -2.9043,9.87695 c 0,0 0.016,9.66971 0.709,10.0918 0.6928,0.42209 8.3516,2.46875 8.3516,2.46875 0,0 6.6914,-3.75948 6.6914,-4.46485 0,-0.70537 3.4551,-10.50976 3.4551,-10.50976 l -2.7071,-5.24805 -3.4844,-5.23242 z" />
    <path
       style="fill:#d3bc5f"
       d="m 780.71425,249.90709 c 18.06812,-5.21308 17.96564,-5.39027 17.96564,-5.39027 l 29.41631,-17.23741 16.82812,-14.99972 13.81416,-16.17168 11.40911,-20.7233 4.13226,-13.06196 -0.62993,-15.55766 -11.82316,-16.44459 -23.50008,-14.52358 -30.58928,-9.36453 -29.47365,-5.37376 -2.73538,-7.323213 -9.47021,-9.34306 -22.05136,-8.80377 -18.87013,-0.229841 -17.14639,3.043505 -15.25222,5.696927 -11.64432,8.819598 -2.25686,6.848001 -17.76195,3.811373 -21.43875,5.05416 -18.73872,6.25296 -14.58126,5.97545 -13.6352,9.15655 -8.41216,13.64161 -2.08634,21.83215 2.84311,18.26145 7.32849,19.17551 11.41716,14.96433 21.83567,14.42716 20.56906,7.97661 22.41943,3.25193 c 0,0 -0.36892,-4.11242 -0.66632,-5.03096 -0.29739,-0.91853 -10.54303,-18.47479 -10.54303,-18.47479 l -5.69677,-11.98394 0.64794,-14.88198 10.07591,0.56862 13.41215,-2.82228 18.24582,-3.73217 27.32014,-4.123 17.04934,0.59623 24.53915,2.10855 14.28833,3.41459 14.76628,-0.45171 6.79452,-1.04677 -2.04795,9.71141 -0.42151,10.08962 -4.41937,9.76954 -0.95682,6.59047 -2.62099,6.6388 -7.22315,7.56669 -3.91947,7.54596 z"
       id="path8" />
    <path
       style="fill:#ff6600"
       d="m 820.30072,563.98986 3.89874,26.27594 -4.45651,2.37185 -21.01925,3.87246 -43.44163,4.19094 -32.46779,0.50259 c 0,0 -28.30832,-0.83389 -29.52448,-0.61791 -1.21617,0.21598 -10.39754,-2.18055 -10.39754,-2.18055 l -11.89073,-8.98411 -8.54855,-10.85974 0.0218,-7.27377 2.1126,-4.10114 8.54089,1.85421 34.55992,2.76306 32.57515,0.71828 39.94503,-2.64273 29.12055,-4.2414 z"
       id="path7" />
    <path
       id="path6"
       style="fill:#916f6f"
       d="m 662.38281,1055.7891 -18.37695,0.9824 -26.4668,1.0195 -12.07422,-0.2168 -9.41406,23.793 -8.85937,14.5586 -11.80664,14.5898 -12.98633,14.1485 -2.36524,7.666 4.28516,9.248 15.74609,14.6836 7.57422,4.4199 h 0.76953 l 14.41992,-1.0371 c 10e-6,0 19.14925,-2.5664 20.0293,-2.5664 0.88004,0 15.16406,-4.3105 15.16406,-4.3105 l 17.56055,-11.6465 12.08594,-11.2832 3.07422,-4.6621 v -6.9512 l -5.08399,-25.0293 -3.65625,-20.9316 z m 134.18164,0.7929 -2.00781,18.3907 -4.18359,19.1132 -6.36914,17.0352 0.13086,8.0566 10.11132,17.6953 15.78516,14.7481 11.51563,8.7383 13.7207,3.1347 22.4043,0.375 13.25781,-1.7226 9.42578,-8.8184 10.65234,-14.291 1.4043,-9.0508 -2.52149,-9.7148 -19.26562,-27.6465 -17.02734,-28.9453 -17.83008,-2.7988 z" />
    <path
       style="fill:#000080"
       d="m 715.19239,766.90594 1.83262,-6.94962 11.10761,-0.46044 12.83241,1.17264 3.50723,17.20746 6.56442,35.0853 8.50957,29.61316 5.51344,18.33319 2.58964,14.72217 -1.25379,24.01559 -1.74972,35.64747 1.61528,14.44961 7.3933,23.94774 11.29765,30.51999 5.1117,15.0663 5.94657,26.9256 0.0303,8.8827 23.35176,3.5033 34.66737,4.993 -3.0395,-23.76 2.05844,-29.2267 -0.12702,-29.73438 0.20581,-19.53224 -4.02761,-30.64344 -8.76709,-46.0138 0.77849,-22.23609 2.85303,-24.10028 3.22434,-20.55735 1.30485,-49.93835 1.57932,-18.88483 -5.30393,-1.25113 -29.78293,6.84958 -37.16298,3.11933 -35.35145,-3.32705 -33.99609,0.53756 -24.37536,0.19296 -30.47838,-3.25053 -20.86798,-9.56742 -18.46416,-6.57312 -1.63392,6.03796 -2.91837,33.33502 -0.49358,37.16623 0.75917,36.42754 3.57373,41.79507 -2.25046,15.08509 -5.32053,32.98649 -2.64337,32.61157 -0.21309,49.86541 2.03911,34.5417 3.60678,2.1245 52.72025,-2.2087 6.53994,-28.2026 8.67919,-35.07757 6.85088,-30.35525 1.83691,-34.84371 1.17056,-46.28311 5.56443,-25.25059 7.29095,-25.12963 11.11981,-39.20659 z"
       id="path5" />
    <path
       id="path4"
       style="fill:#008000"
       d="m 792.87305,317.5957 -8.40039,7.97657 -17.89063,10.57226 -16.38476,9.67383 -2.22852,7.37109 -2.7168,21.01563 -1.85937,18.57812 -6.97852,13.41016 -10.52929,16.14258 -7.85547,-7.42383 -7.97657,-24.19141 -2.65039,-26.21093 -4.41211,-10.57618 -9.93164,-8.07421 -19.81445,-8.49805 -7.84961,-12.38672 -21.77148,3.80273 -22.86328,0.93555 -17.92383,1.16406 -9.63672,1.83008 -11.28516,6.35352 -7.93554,6.9414 -6.59571,9.26367 -10.17383,25.77149 -9.7832,20.95898 -11.11328,21.98047 -18.5918,24.16797 -10.90234,14.19922 -7.50977,17.18555 -2.05468,13.88281 3.49218,14.88867 14.23633,25.23633 18.8418,22.57422 32.54101,35.49023 15.36524,11.28711 7.26758,4.16992 5.3125,-1.89843 8.33984,-5.94336 4.72656,-16.73438 14.57032,-31.78515 2.65429,-4.13086 5.24805,-1.5918 -2.55664,0.62305 -4.63086,-1.4043 -17.03125,-18.31055 -20.23047,-19.84765 -10.95312,-10.25391 3.19921,-4.58789 19.61524,-26.8125 16.38086,-14.66016 2.61133,1.99805 4.37695,21.74414 5.12695,25.29492 4.83399,22.06641 5.87304,18.4707 0.73633,3.88672 -0.16406,0.041 24.3457,2.8164 19.21875,8.04297 12.03906,9.60742 1.17188,6.54883 21.02539,2.44141 52.73828,-1.53516 31.71485,-4.08594 22.3789,-2.00781 0.72461,-5.63281 3.02344,-11.66016 9.40234,-20.57617 3.65821,-25.49805 2.74218,-28.21875 6.96094,-27.74804 3.85938,-0.38477 -1.875,15.08203 1.89843,24.98828 4.75196,21.90235 6.5332,17.85937 13.50977,26.0586 7.59179,6.61523 6.33203,5.95508 5.58789,1.06836 11.38477,-2.45899 19.71289,-7.86328 17.34375,-12.21484 14.69531,-16.79102 12.51953,-18.19336 23.32813,-55.86718 10.81443,-28.08985 -0.4316,-4.64258 -6.56057,-5.16796 -23.48242,-11.46875 -16.4375,-9.78321 -24.4082,28.72266 -16.7832,15.54883 -4.58203,2.62695 -1.85352,-1.30859 -6.31641,-13.20313 -7.02734,-28.95117 -5.77344,-26.33789 -8.98633,-20.59375 -10.92187,-14.92383 -19.86524,-7.25781 -31.16992,-6.96485 z m -155.83594,225.62696 -1.02149,-0.11914 -6.16601,1.87109 z m 189.45117,48.19922 -41.80078,7.29296 -46.6875,2.82813 -27.74805,-0.39063 -11.91406,1.20118 3.23242,9.52148 -1.23242,11.64648 -0.79101,8.14063 -1.15626,7.99414 -8.05078,4.24023 -3.15234,2.22461 -3.51562,8.17383 -13.75782,-0.0254 -2.18554,9.38086 -9.67383,-2.625 -21.74414,-16.57617 -16.7461,-19.22266 -5.46093,7.48242 -11.99024,17.1836 -10.86328,22.76758 -5.41602,18.40429 -5.49414,22.00391 -1.65234,16.6543 12.96094,-1 11.40039,0.91796 17.32812,6.7754 14.58203,8.17187 16.62891,6.8418 12.7168,2.86914 42.18359,2.35351 46.98047,-1.13867 20.01172,2.90235 c 0,0 38.52054,-1.77091 39.27539,-2.10547 0.75485,-0.33457 32.61328,-7.5 32.61328,-7.5 l 8.62109,-6.0918 5.8086,-9.14453 -2.00195,-23.06445 -3.00782,-23.28125 -4.19922,-25.09375 -9.60351,-32.81641 -11.32031,-30.90039 z" />
    <path
       id="path3"
       style="fill:#aa4400"
       d="m 791.82812,188.05078 -7.95898,0.1582 -2.82812,0.9043 1.35546,15.18164 1.6543,10.3125 6.10352,3.57422 3.67773,-5.76953 3.32422,-9.55078 -1.33008,-11.67188 z m -132.76367,4.875 -7.23828,0.5625 1.61914,18.23047 6.47461,5.64453 7.5918,-2.74609 1.11719,-21.11524 -3.34766,-0.40625 z" />
    <path
       id="path2"
       style="fill:#ffccaa"
       d="m 724.66797,182.45117 -37.74609,4.52149 -18.56446,5.49414 -0.3789,18.08398 -2.66602,7.65234 -5.16211,2.21485 7.9707,20.58203 7.07813,12.75586 7.82422,28.10156 -0.0586,9.2832 -11.21289,25.85743 -5.64257,7.28711 5.03124,10.79687 16.7793,8.87891 14.71875,8.58398 4.63867,14.33594 4.77735,35.19922 8.61719,17.63672 4.58398,2.73632 3.0293,-4.29882 12.90429,-20.43946 4.72657,-33.17773 1.58203,-14.76172 13.07422,-11.04297 27.4082,-15.35937 3.57617,-6.85938 -11.2207,-10.57226 -5.38086,-15.91407 -4.08594,-8.67968 3.24414,-12.95704 5.28516,-18.13476 2.41406,-11.64648 6.36133,-8.24219 2.51758,-5.99024 -7.02539,-12.43359 -1.90821,-18.71094 -7.30078,-5.27539 z m 271.41601,108.98633 -10.05273,1.56445 -7.84766,-0.35547 -8.80859,8.51563 -12.42969,21.78125 -6.64062,11.85547 1.77539,8.62695 11.3164,20.57813 3.72852,10.46289 -2.35938,6.68359 -5.22851,10.23242 2.38086,2.25391 18.88281,10.09375 13.40625,6.81641 8.22267,2.13671 1.0625,-11.30273 4.2539,-7.88672 6.4785,-7.27539 10.0371,-6.39648 9.2598,-5.51758 6.1133,-13.73242 2.8964,-8.71875 0.9649,-11.20899 0.4805,-11.22461 4.4922,-9.3125 3.8535,-14.10937 -3.6661,-6.01758 -11.2148,-1.80078 -6.7891,-2.45313 -9.2441,-4.13281 -3.6094,1.86523 -8.2871,-0.14062 -4.6738,-1.87305 z m -349.75586,251.62305 -21.60742,3.47851 -18.32617,38.26172 -1.61328,12.54492 11.02148,19.36914 12.84375,17.6211 11.00391,13.26562 18.64453,13.75782 c 0,0 7.35506,3.95527 7.9707,3.90039 0.61566,-0.0549 4.48047,-10.02539 4.48047,-10.02539 l 7.22461,-2.30665 6.84766,0.16016 3.19336,-8.45508 10.85351,-3.82422 3.10938,-8.96679 -3.25391,-6.46485 2.54492,-6.49609 -3.07617,-15.62695 -8.88867,-2.77539 -10.56836,-4.375 -10.13281,-9.32032 -5.13086,-9.67578 0.71289,-8.91797 8.77734,0.94727 14.72266,2.21875 8.27539,-1.0332 -5.58398,-7.62891 -17.05469,-13.92188 z" />
    <path
       id="path1"
       style="fill:#000000"
       d="m 726.50781,72.958984 c -10.96187,0.577426 -22.61925,2.873295 -30.9082,6.539063 C 685.63559,83.904605 675,92.38124 675,95.916016 c 0,2.371684 -4.32613,4.258874 -10.98242,4.789064 -0.34814,0.0277 -0.50614,0.12289 -0.7793,0.17187 l -2.61523,0.24414 v -0.006 l -0.043,0.01 -0.0898,0.008 -0.002,0.0117 -12.63476,2.70117 c -1.60566,0.30606 -3.42668,0.66149 -4.35352,0.82422 -0.40909,0.0718 -0.50801,0.26161 -0.89453,0.37305 l -9.71875,2.43555 c -0.0192,0.005 -0.0277,0.007 -0.0469,0.0117 l -2.42773,0.60743 -12.17578,4.34375 -0.36719,0.24414 -3.52148,1.59375 -2.91797,1.64062 -0.2168,0.18946 c -2.15093,0.8565 -5.07536,2.24323 -9.95312,5.0039 -7.15888,4.05168 -15.93805,13.45798 -18.44922,19.76563 -2.00556,5.03742 -2.24153,7.39921 -2.26953,22.72265 -0.0192,10.51606 0.37545,17.64011 1.02539,18.5 0.58132,0.76912 1.00355,2.07344 0.93945,2.89844 -0.21363,2.74748 5.62883,17.36524 7.59375,19 0.33054,0.275 0.80754,1.14309 1.06055,1.92969 0.53028,1.64867 13.99347,16.87055 15.02734,16.99023 0.37856,0.0438 2.10758,1.37697 3.8418,2.96094 1.73423,1.58397 4.35028,3.48551 5.8125,4.22656 1.46222,0.74105 4.2332,2.27716 6.1582,3.41406 8.74284,5.16388 23.65581,9.92551 37.68359,12.03125 5.33711,0.80118 10.03642,1.99315 10.44141,2.64844 0.94643,1.53136 4.87895,17.73293 4.87695,20.09375 -10e-4,1.46273 -0.60402,1.70244 -3.25195,1.28906 -6.59159,-1.029 -20.44466,-2.60071 -27.07031,-3.07031 -3.7515,-0.26588 -7.15919,-0.69196 -7.57227,-0.94726 -0.41308,-0.25529 -2.74427,-0.5345 -5.17969,-0.6211 -2.43534,-0.0866 -6.90273,-0.55648 -9.92773,-1.04297 -3.025,-0.48649 -7.75,-1.06881 -10.5,-1.29492 -2.75,-0.22611 -10.85007,-1.10771 -18,-1.95898 -7.14993,-0.85128 -15.475,-1.77135 -18.5,-2.04492 -3.025,-0.27356 -7.3,-0.74495 -9.5,-1.04688 -4.09866,-0.56249 -7.67307,-0.97166 -22.5,-2.57812 -4.675,-0.50655 -11.64289,-1.35446 -15.48438,-1.88282 -3.84142,-0.52819 -7.17529,-0.77001 -7.4082,-0.53711 C 519.01536,253.65066 517,250.42088 517,247.57812 c 0,-2.56956 -0.43047,-3.21606 -2.25,-3.37695 -1.2375,-0.10943 -4.275,-0.43392 -6.75,-0.7207 -4.00702,-0.4643 -21.59431,-2.19697 -31,-3.05469 -3.97729,-0.36269 -12.0532,-1.80847 -23,-4.11523 -11.72544,-2.47091 -13.2064,-2.3463 -14.19336,1.18945 -0.46058,1.65 -1.03905,4.125 -1.28516,5.5 -0.24611,1.375 -0.91398,4.4125 -1.48437,6.75 -0.57039,2.3375 -1.42857,5.9375 -1.9082,8 -0.47963,2.0625 -1.37411,4.99852 -1.98633,6.52539 -0.61221,1.52686 -1.30533,3.77686 -1.54102,5 -0.61316,3.18203 -7.0187,21.84529 -8.31445,24.22461 -0.59905,1.1 -1.10354,2.225 -1.11914,2.5 -0.0156,0.275 -0.509,1.76614 -1.09766,3.31445 -0.58867,1.5483 -1.07031,3.04996 -1.07031,3.33594 0,2.13064 -24.04465,50.45875 -26.54297,53.34961 -1.99957,2.31374 -8.45748,14.04853 -8.44531,15.3457 0.0102,1.08646 4.68837,4.68625 13.23828,10.1836 2.0625,1.32612 3.75,2.21664 3.75,1.98047 0,-0.23617 3.0375,1.09805 6.75,2.96484 8.8764,4.46336 23.70342,9.83488 29.91406,10.83594 1.55936,0.25134 4.63594,0.93974 6.83594,1.52929 14.20149,3.8057 43.11913,3.32213 60.5,-1.01172 7.08566,-1.76672 6.9873,-0.82683 1.39258,-13.45312 -4.39323,-9.91461 -5.58768,-16.64654 -6.01367,-33.875 -0.23118,-9.34993 -0.91538,-19.475 -1.52149,-22.5 -1.34111,-6.69319 -5.20726,-14.91091 -9.02539,-19.1875 -1.5581,-1.74519 -2.83203,-3.4329 -2.83203,-3.75 0,-0.3171 -2.01801,-2.82202 -4.48438,-5.56836 -4.39501,-4.89392 -5.26775,-6.41707 -3.76562,-6.57031 0.4125,-0.0421 1.65,-0.26827 2.75,-0.50195 1.77077,-0.3763 11.55675,-0.89556 24.27539,-1.28907 3.93457,-0.12174 4.32402,-0.37791 4.89063,-3.21093 0.6364,-3.18231 5.38725,-6.26206 6.14648,-3.98438 0.19477,0.58431 2.76868,1.0625 5.7207,1.0625 2.9521,0 7.5284,0.4406 10.16797,0.97852 2.63957,0.53791 7.72383,1.17764 11.29883,1.42187 3.575,0.24424 7.175,0.66918 8,0.94531 0.825,0.27613 4.69807,0.75067 8.60742,1.05469 3.90941,0.30401 7.73441,0.75819 8.5,1.00781 0.76558,0.24961 5.06551,0.70773 9.55469,1.01953 4.48911,0.31181 8.76418,0.76313 9.5,1.00196 0.73582,0.23883 4.03789,0.69497 7.33789,1.01367 3.3,0.3187 7.125,0.7629 8.5,0.98633 1.375,0.22342 5.2,0.67101 8.5,0.99609 3.3,0.32509 9.6,1.01254 14,1.52734 9.31058,1.0895 17.35736,1.93796 23,2.42579 2.2,0.1902 4.675,0.59947 5.5,0.9082 0.825,0.30873 4.80255,0.76299 8.83789,1.00977 9.91782,0.60646 11.04542,1.78243 7.97266,8.30078 -1.27123,2.69657 -2.54628,5.12734 -2.83399,5.40234 -0.2877,0.275 -1.33554,1.77561 -2.32812,3.33398 -3.74206,5.87539 -11.95067,7.64554 -40.14844,8.65821 -12.09993,0.43454 -23.44567,1.03945 -25.21289,1.3457 -6.15512,1.06667 -12.83337,3.81899 -19.78711,8.15234 -8.76476,5.462 -12.52953,9.13842 -15.5918,15.22461 -1.32436,2.63216 -2.64536,5.01016 -2.93554,5.28516 -0.61628,0.58404 -2.53367,5.24489 -6.94336,16.88477 -3.5684,9.41906 -6.7704,16.57509 -14.62891,32.68359 C 539.4305,412.65603 537,418.1686 537,418.81836 537,419.46811 536.64625,420 536.21484,420 c -0.43142,0 -1.63428,1.4625 -2.67382,3.25 -1.96096,3.37164 -8.19944,11.50299 -10.16602,13.25 -0.61912,0.55 -1.51912,1.73351 -2,2.63086 -0.79679,1.48686 -6.66592,8.68763 -10.38867,12.74609 -5.27555,5.7513 -11.33447,17.35108 -14.08203,26.95899 -1.35312,4.73152 -1.74747,8.83746 -1.49024,15.54687 0.32665,8.52007 0.6434,9.68654 4.83399,17.80664 5.58085,10.81415 18.70379,30.22998 26.99023,39.9336 2.056,2.40755 5.13192,6.17695 6.83594,8.37695 1.70403,2.2 8.56519,9.62507 15.24609,16.5 6.68097,6.87493 12.0425,12.8375 11.91407,13.25 -0.1285,0.4125 0.13732,0.6375 0.59179,0.5 0.45447,-0.1375 3.94204,2.62011 7.75,6.12891 3.80803,3.50873 8.16133,6.81514 9.67383,7.34765 1.5125,0.5325 2.75,1.33286 2.75,1.77735 0,1.19487 9.06352,4.06977 10.375,3.29101 0.61883,-0.36746 2.76719,-1.97239 4.77539,-3.56836 3.07015,-2.43993 3.9853,-2.72373 5.75,-1.77929 1.1543,0.61776 2.09961,1.6085 2.09961,2.20117 0,0.59266 1.15534,2.48936 2.56836,4.21484 9.65065,11.7848 10.15411,13.6735 5.27344,19.83594 -4.29439,5.42203 -6.86402,9.27657 -11.60352,17.40234 -4.28023,7.33854 -11.95455,23.81073 -12.57422,26.99024 -0.20445,1.04901 -1.1024,3.5541 -1.99414,5.5664 -0.89174,2.01237 -2.10456,5.83744 -2.69726,8.5 -0.59269,2.66263 -1.7359,6.78781 -2.53907,9.16602 -0.80316,2.37822 -1.22094,4.71035 -0.92968,5.18164 0.29127,0.47128 0.0707,1.13891 -0.48829,1.48437 -0.5589,0.34546 -1.01562,2.14717 -1.01562,4.00391 0,1.85673 -0.38828,4.41811 -0.86328,5.69141 -0.47501,1.27331 -1.18494,6.07841 -1.57813,10.67773 l -0.71484,8.36133 4.32813,-0.65039 c 2.38063,-0.35751 8.28623,-0.9028 13.125,-1.21289 8.35369,-0.53534 9.00587,-0.42758 12.88671,2.14062 l 4.08594,2.70508 -0.62109,6.14649 C 609.30619,745.73403 608.56401,752.55 608,757.5 c -1.37268,12.0472 -1.99758,68.26373 -0.9668,87 1.7765,32.29136 1.95609,34.44798 3.63086,43.49023 0.25358,1.36913 0.008,4.2942 -0.54687,6.5 -0.55508,2.20588 -1.93587,10.30984 -3.06836,18.00977 -1.13248,7.69993 -2.51012,16.925 -3.06055,20.5 -1.52609,9.91176 -2.06579,15.33917 -2.93359,29.5 -0.86896,14.17974 -0.67784,67.1663 0.25976,72 3.03128,15.6275 0.45366,31.288 -7.65234,46.5 -3.02114,5.6695 -11.30432,17.2151 -16.14258,22.5 -1.51056,1.65 -5.28258,5.7513 -8.38281,9.1152 -8.43802,9.1555 -10.08062,11.3103 -10.79688,14.1641 -0.88269,3.517 1.23038,10.9695 4.22266,14.8926 3.73129,4.892 15.41337,16.1505 20.23242,19.5 l 4.29492,2.9863 9.20508,-1.1328 c 14.65195,-1.8025 16.72083,-2.0943 25.70508,-3.6328 9.12334,-1.5625 16.53315,-3.9176 19.07812,-6.0625 0.86831,-0.7318 1.85305,-1.3301 2.1875,-1.3301 0.33453,0 5.05129,-3.1352 10.48047,-6.9668 14.73142,-10.3963 20.27067,-17.0363 20.23047,-24.248 -0.0256,-4.591 -0.33738,-6.0867 -4.35351,-20.9063 -6.52459,-24.0756 -7.09354,-34.3455 -3.1211,-56.3789 1.62859,-9.0329 6.71817,-29.1354 9.4668,-37.3945 1.54081,-4.6299 2.74749,-10.2475 3.56641,-16.6055 0.0708,-0.55 0.84216,-3.475 1.71484,-6.5 1.55776,-5.39962 2.60013,-11.0536 4.79492,-26 0.60572,-4.125 1.29554,-17.62507 1.53125,-30 0.67468,-35.42241 1.20748,-43.8099 3.47071,-54.5 1.16434,-5.49993 2.24533,-10.9 2.40234,-12 0.15702,-1.1 0.55781,-2.675 0.88867,-3.5 0.33086,-0.825 0.77122,-2.625 0.97852,-4 0.20731,-1.375 0.60771,-3.175 0.89062,-4 1.87512,-5.46803 3.74727,-12.07902 4.38867,-15.5 0.81975,-4.37217 0.80861,-4.33197 1.67969,-6.5 1.35495,-3.37231 8.24186,-28.37772 9.77734,-35.5 0.59289,-2.75 1.46257,-6.35 1.93165,-8 0.469,-1.65 1.35892,-6.375 1.97851,-10.5 2.02124,-13.45656 0.63197,-12.11111 12.16797,-11.78516 l 10.07617,0.28516 1.29297,4 c 0.71205,2.2 1.56488,7.15 1.89453,11 0.85163,9.94602 1.70969,14.53127 6.64844,35.5 2.37953,10.10294 3.07044,12.67313 3.89648,14.5 0.49738,1.1 1.23995,3.35 1.65039,5 0.41045,1.65 0.80772,3.225 0.88282,3.5 0.0751,0.275 2.00539,6.35007 4.28906,13.5 2.28367,7.14993 4.60075,15.025 5.14844,17.5 1.23298,5.57172 1.2094,30.9916 -0.0352,37.61328 -1.35101,7.18803 -1.84515,29.76425 -0.83789,38.29297 1.17766,9.97147 5.79625,27.77089 8.97656,34.59375 0.51274,1.1 1.55728,3.8 2.32227,6 1.17308,3.37355 6.86289,18.0624 9.68359,25 0.44724,1.1 1.0371,2.9 1.31055,4 0.27344,1.1 1.62638,5.825 3.00586,10.5 1.37947,4.675 3.02766,12.1 3.66211,16.5 1.21142,8.4014 1.74095,11.6693 2.02539,12.5 0.394,1.1507 -0.15918,9.0058 -1.125,16 -1.46846,10.6341 -1.87199,12.8942 -3.39844,19 -0.275,1.1 -0.69645,2.8814 -0.93555,3.959 -0.23909,1.0775 -2.07342,6.7098 -4.07812,12.5156 -3.40108,9.8499 -3.57198,10.8992 -2.54297,15.6973 1.14921,5.3586 5.75647,14.8281 7.21484,14.8281 0.46259,0 0.8418,0.4994 0.8418,1.1094 0,1.2412 1.44552,2.9031 11.5,13.2285 6.48683,6.6617 15.43639,13.6621 17.4668,13.6621 0.47659,0 1.02467,0.4764 1.21875,1.0586 0.19407,0.5822 3.83787,1.5947 8.0957,2.25 4.25783,0.6553 14.9308,1.3498 23.71875,1.543 15.76666,0.3467 16.03728,0.3155 20.48828,-2.293 2.48091,-1.4539 4.51172,-3.0747 4.51172,-3.6016 0,-0.5268 0.60321,-0.957 1.33984,-0.957 1.73314,0 6.20622,-4.9512 11.29297,-12.5 9.0531,-13.4348 8.67302,-19.6514 -2.14258,-35 -13.57086,-19.2587 -21.48896,-31.4486 -26.32617,-40.5352 -4.60444,-8.6487 -5.12786,-10.3267 -6.07422,-19.4648 -1.30373,-12.5896 -1.37423,-21.5726 -0.29687,-38 0.90475,-13.79543 0.75647,-55.29342 -0.21289,-59.5 -0.31686,-1.375 -0.80602,-5.2 -1.08789,-8.5 -0.92153,-10.78843 -3.34308,-25.66093 -6.08594,-37.37891 -2.43709,-10.41164 -3.49923,-19.72512 -4.08789,-35.83984 -0.52678,-14.42075 -0.14345,-19.12081 2.71289,-33.28125 0.49923,-2.475 1.09635,-5.85 1.32813,-7.5 0.23171,-1.65 0.69324,-4.575 1.02539,-6.5 1.6008,-9.27776 1.88775,-14.52913 2.26367,-41.5 0.22232,-15.94986 0.624,-30.00501 0.89258,-31.23242 0.26857,-1.22741 1.78085,-3.70377 3.36132,-5.50391 1.58054,-1.80013 3.88147,-5.20689 5.11328,-7.57031 2.20554,-4.23141 2.22216,-4.5305 1.0293,-19.49609 -1.54397,-19.37083 -1.71908,-21.1508 -2.44922,-25.00782 -1.08825,-5.74869 -1.51316,-8.10548 -2.65039,-14.68945 -2.50574,-14.5073 -4.89239,-24.79625 -8.8164,-38 -6.52925,-21.96957 -5.79799,-19.8197 -13.43164,-39.5 -1.70668,-4.4 -3.47001,-8.50487 -3.91797,-9.12305 -0.44795,-0.61818 -1.47626,-8.04325 -2.28516,-16.5 -0.80891,-8.45675 -1.9529,-16.54634 -2.54102,-17.97461 -0.92733,-2.25217 -0.39671,-3.96273 3.99219,-12.88867 8.47492,-17.23578 11.76435,-30.20861 12.16211,-47.95703 0.25734,-11.48291 0.7176,-15.2168 3.57031,-28.98828 1.95876,-9.45569 2.9087,-7.85104 3.76368,6.35742 0.36157,6.00883 0.94588,11.39184 1.29882,11.96289 0.35293,0.57106 0.96235,2.85411 1.35547,5.07422 0.39313,2.22012 0.97733,4.93711 1.29688,6.03711 0.31955,1.1 1.22739,4.32695 2.01758,7.17188 0.79018,2.84486 1.92154,6.07913 2.51367,7.18554 0.59214,1.10641 1.07617,2.76024 1.07617,3.67578 0,0.91554 0.62162,3.08329 1.38086,4.81641 0.75923,1.73312 2.37782,5.62539 3.59766,8.65039 2.82127,6.99639 10.4014,20.29114 13.86132,24.31055 8.09238,9.40074 14.67448,13.15301 21.34571,12.16992 11.80301,-1.73934 18.63226,-4.20789 32.39843,-11.70899 15.16618,-8.26384 28.72537,-22.34821 39.2168,-40.73437 C 974.95799,504.9992 989,475.96013 989,474.33203 c 0,-0.29101 0.66279,-1.94852 1.47266,-3.68164 1.51768,-3.24798 5.67613,-14.30383 10.50584,-27.93555 1.5169,-4.2814 3.041,-8.06832 3.3887,-8.41601 0.3477,-0.3477 0.6328,-1.37232 0.6328,-2.27735 0,-0.90495 0.9428,-3.59825 2.0957,-5.98437 l 2.0957,-4.33789 -2.1621,-7.59961 c -2.327,-8.1725 -2.2909,-10.65688 0.2383,-16.09961 2.9018,-6.24477 8.4605,-10.91931 18.998,-15.97656 7.7567,-3.72271 9.8189,-5.95755 12.7696,-13.84375 1.1636,-3.11017 2.453,-6.11129 2.8671,-6.66797 0.414,-0.55668 1.5427,-3.14922 2.5079,-5.76172 1.62,-4.38492 2.0153,-4.75 5.1386,-4.75 5.036,0 10.0795,-2.8473 13.1563,-7.42773 2.2773,-3.39013 2.7406,-5.17165 2.7656,-10.64063 0.022,-4.91871 -0.4054,-7.00503 -1.6992,-8.30078 -0.9504,-0.95174 -2.0754,-2.27924 -2.5,-2.95117 -1.1205,-1.77291 -5.8446,-3.64718 -8.0996,-3.21289 -1.8541,0.35706 -1.8815,0.14503 -0.5996,-4.79688 0.7376,-2.84366 1.1701,-6.06992 0.9609,-7.16992 -0.2092,-1.1 -0.415,-2.30353 -0.457,-2.67383 -0.1743,-1.53355 -5.5648,-7.06122 -7.6641,-7.85937 -1.2456,-0.47361 -4.5473,-0.96447 -7.3379,-1.0918 -2.7906,-0.12733 -5.0742,-0.56581 -5.0742,-0.97266 0,-0.40685 -1.5148,-1.67545 -3.3672,-2.82031 -3.5673,-2.20469 -12.009,-2.90036 -13.1328,-1.08203 -0.8781,1.42077 -7.8584,1.24104 -9.3398,-0.24023 -1.5934,-1.59338 -13.40606,-1.5222 -13.94145,0.084 -0.4829,1.4487 -5.69343,1.50891 -8.33398,0.0957 -1.42389,-0.76204 -3.02638,-0.72296 -5.6836,0.13867 -6.21542,2.01561 -9.32205,4.91098 -12.29101,11.45899 -2.88373,6.35985 -5.49324,8.28779 -8.82227,6.51562 -0.87358,-0.46504 -4.53706,-1.09708 -8.14062,-1.40429 -3.60363,-0.3072 -7.2037,-0.7838 -8,-1.0586 -0.79637,-0.2748 -3.47227,-0.71365 -5.94727,-0.97461 -5.90756,-0.6229 -12.88791,-1.47442 -21.5,-2.62109 -3.85,-0.51261 -10.825,-1.43773 -15.5,-2.05664 -4.675,-0.61891 -9.625,-1.31248 -11,-1.54102 -5.41637,-0.90021 -15.7755,-2.32758 -21,-2.89453 -7.21488,-0.78294 -9.24372,-1.06565 -17.05469,-2.37695 -3.60469,-0.60516 -10.57976,-1.54523 -15.5,-2.08789 -4.92018,-0.54266 -13.22038,-1.64549 -18.44531,-2.45117 -5.22493,-0.80568 -11.975,-1.70643 -15,-2.00196 -19.50592,-1.9056 -24.90559,-3.20562 -26.07422,-6.27929 -0.90913,-2.39119 -0.36881,-6.81727 1.07617,-8.80469 0.39988,-0.55 1.04772,-3.025 1.43946,-5.5 0.39174,-2.475 1.01675,-6.26188 1.38671,-8.41602 l 0.67188,-3.91796 9.5,-3.36329 c 5.22493,-1.85014 12.425,-4.76612 16,-6.48046 6.4596,-3.09779 22.04392,-12.39637 23,-13.72266 0.275,-0.38148 3.2,-2.76708 6.5,-5.30273 14.42057,-11.08073 33.61952,-35.07809 36.04883,-45.05665 0.36948,-1.51763 1.04309,-2.9876 1.49609,-3.26757 1.97968,-1.22351 4.32507,-12.43011 4.38867,-20.97266 0.0588,-7.89329 -0.27566,-9.69518 -2.71093,-14.6543 -3.06659,-6.24448 -13.14391,-16.86834 -18.33985,-19.33398 -1.08103,-0.51298 -1.636,-1.00904 -2.33008,-1.52344 v -0.008 l -3.69921,-2.24219 -3.55274,-1.45508 C 843.66841,115.13307 840.58707,113.68607 835.5,111.6385 825.76452,107.72 803.22663,101.86434 793,100.59749 782.77007,99.330319 781.92257,98.948536 778.94531,94.253906 775.02344,88.06969 769.7108,83.486959 761.75,79.421875 758.0375,77.52615 755,76.158577 755,76.382812 c 0,0.224241 -2.74091,-0.445961 -6.08984,-1.488281 -3.29784,-1.026396 -7.35728,-1.657683 -11.82227,-1.927734 -3.34874,-0.202538 -6.9261,-0.200283 -10.58008,-0.0078 z m 5.13477,4.5 c 10.74618,0.342235 22.69495,3.292771 30.35742,7.863282 5.814,3.46794 11.38517,9.231511 10.68555,11.054687 -0.34246,0.892435 -0.97453,1.548878 -1.4043,1.458985 -4.75529,-0.994776 -37.58421,-1.630285 -59.88867,-1.160157 -22.45896,0.473393 -28.26932,0.33182 -28.91016,-0.705078 -0.99549,-1.610713 2.42483,-4.671038 10.26758,-9.183594 7.8567,-4.520575 13.92835,-6.37078 28.75,-8.763671 3.11141,-0.502326 6.5605,-0.678532 10.14258,-0.564454 z m -0.57227,24.031246 c 21.95443,0.25243 44.83377,1.47947 55.92969,3.41211 3.025,0.5269 8.2,1.39094 11.5,1.92188 26.6092,4.28112 54.13153,16.19753 64.58594,27.96484 6.37294,7.17336 7.86698,11.24454 7.89258,21.49414 0.0186,7.43141 -0.44863,10 -3.03516,16.70703 -7.12563,18.47749 -24.08595,38.85583 -44.74609,53.76368 -8.20667,5.92163 -21.40925,13.25332 -29.19727,16.21484 -1.925,0.732 -5.075,1.9319 -7,2.66602 -4.30626,1.64221 -3.95424,1.64788 -4.61133,-0.0645 -0.8969,-2.3373 2.32675,-7.86355 7.63672,-13.09375 4.78549,-4.71346 6.0927,-7.66751 3.97461,-8.97656 -1.65168,-1.02079 -1.13165,-5.06349 1,-7.77344 1.1,-1.39842 2,-3.23288 2,-4.07617 0,-0.84329 0.45,-1.81047 1,-2.15039 0.55,-0.33992 1,-4.17525 1,-8.52344 0,-8.91404 0.90123,-10.13133 6.83594,-9.23047 3.05173,0.46326 3.30745,0.30454 3,-1.86914 -0.25484,-1.80177 -1.0611,-2.45817 -3.33594,-2.71484 -1.65,-0.18616 -3.50099,-0.75351 -4.11328,-1.25977 -0.68032,-0.56251 -4.01574,-0.51712 -8.57617,0.11719 -6.12373,0.85173 -8.6153,0.74677 -13.88672,-0.58984 -30.35166,-7.69573 -68.70312,-7.55444 -99.10352,0.36523 -4.2238,1.10037 -8.12542,2.27482 -8.66992,2.61133 -1.23315,0.76213 -9.24046,1.56838 -24.15039,2.42969 -10.61182,0.61302 -11.5,0.81851 -11.5,2.66406 0,1.83594 0.55377,1.97127 6.75,1.66016 l 6.75,-0.33789 v 8.03711 c 0,7.72599 0.18644,8.37611 4.83203,16.83789 2.65788,4.84109 6.30609,11.13316 8.10547,13.98046 1.79939,2.84737 2.97214,5.65987 2.60742,6.25 -0.81769,1.32305 -3.91745,1.37451 -7.97461,0.13282 -1.68905,-0.51693 -5.77031,-1.4905 -9.07031,-2.16211 -3.3,-0.67162 -6.42672,-1.59714 -6.94922,-2.0586 C 640.02828,235.37839 638.82794,235 637.88477,235 635.73818,235 622.30641,227.94307 615,222.97656 c -14.3503,-9.75444 -24.48248,-24.93333 -28.86133,-43.24023 -2.64133,-11.04276 -0.96223,-32.38492 3.17578,-40.37305 5.50243,-10.62189 28.90381,-23.34107 53.68555,-29.17969 2.475,-0.58311 5.625,-1.35979 7,-1.72461 5.5253,-1.46591 21.61701,-3.89556 37.5,-5.6621 5.70124,-0.63414 13.53859,-1.03454 22.39453,-1.22461 6.64195,-0.14256 13.85766,-0.16618 21.17578,-0.082 z m -5.2207,84.99219 c 14.4629,-0.43508 28.64518,0.76541 42.55273,3.59961 5.53512,1.12799 10.2255,2.21182 10.42188,2.4082 0.19639,0.19638 0.58021,5.00403 0.85351,10.6836 0.48237,10.024 0.61184,10.49324 4.41016,16.02734 2.15211,3.13563 3.91211,6.02051 3.91211,6.41016 0,0.38964 -2.49057,3.31979 -5.53516,6.51172 -6.84735,7.17874 -8.36843,10.73162 -9.53906,22.27734 -1.80859,17.83777 -6.91305,28.25634 -17.17969,35.06445 -6.15096,4.07895 -14.84144,7.25563 -22.08789,8.07422 -2.83691,0.32048 -6.0582,0.71411 -7.1582,0.875 -3.04804,0.44581 -12.46519,-1.11174 -17.45703,-2.88672 -10.05544,-3.57539 -19.71588,-12.00052 -24.43359,-21.31054 -1.38352,-2.73025 -3.91981,-10.30798 -5.63672,-16.83985 -2.40519,-9.14991 -4.59651,-14.59211 -9.54688,-23.70507 C 665.89188,227.16639 663,221.69043 663,221.50391 c 0,-0.18652 2.00572,-1.10486 4.45703,-2.04102 l 4.45703,-1.70117 -0.59961,-11.19336 -0.59961,-11.19141 10.89258,-2.68359 c 15.03533,-3.70488 29.77923,-5.77586 44.24219,-6.21094 z m 63.74805,4.54297 c 1.55875,-0.1818 3.20924,0.17995 4.20312,1.17383 1.98976,1.98976 1.34039,11.77775 -1.10937,16.72656 -2.382,4.81188 -3.39799,5.5419 -5.69141,4.09375 -1.91934,-1.21194 -2.7489,-16.75134 -1.0625,-19.90234 0.63348,-1.18368 2.10134,-1.90999 3.66016,-2.0918 z M 655,194.89062 l 4.75,0.30469 4.75,0.30469 0.28906,8.75 0.28906,8.75 h -2.8164 c -1.54904,0 -3.81669,-0.70046 -5.03906,-1.55664 C 655.262,210.07006 655,209.00337 655,202.38867 Z m 43.29688,11.05665 c -5.46029,0.0982 -11.15301,0.49224 -13.64258,1.11914 -5.21904,1.3141 -8.00878,3.84367 -7.03516,6.38086 0.48295,1.25854 1.38438,1.58906 3.27344,1.19531 14.87989,-3.10152 27.42732,-3.32418 29.20508,-0.51758 1.49085,2.35376 0.9563,12.0384 -1.09766,19.875 -3.49531,13.33591 -2.06496,22.28707 3.76758,23.57227 1.50249,0.33108 3.18242,0.77608 3.73242,0.98828 1.49332,0.57617 12.44084,-0.52128 16.9082,-1.69532 4.20425,-1.10482 9.5918,-5.74153 9.5918,-8.2539 0,-0.84796 -0.87804,-2.01161 -1.95117,-2.58594 -1.57424,-0.8425 -2.39522,-0.57495 -4.25,1.37891 -2.80799,2.95791 -8.44642,4.58284 -15.92578,4.58984 -3.77264,0.004 -6.03574,-0.48494 -6.86524,-1.48437 -1.45691,-1.75546 -0.83287,-7.17568 2.17383,-18.89454 3.448,-13.43879 1.40354,-22.50626 -5.64062,-25.01562 -1.55553,-0.55412 -6.78392,-0.75058 -12.24414,-0.65234 z m 57.45312,0.41992 c -6.61795,-0.0593 -13.81565,1.24332 -16.52734,3.95508 -1.52111,1.52104 -2.26444,3.12571 -1.89454,4.08984 0.70614,1.84017 4.74129,2.11809 6.41797,0.44141 1.63508,-1.63508 15.43337,-2.33547 19.32032,-0.98047 3.83891,1.33827 6.19978,-0.0141 5.73242,-3.28516 -0.39143,-2.73957 -6.43088,-4.16139 -13.04883,-4.2207 z m 1.13672,11.84765 c -1.75986,-0.11219 -4.29822,0.31181 -8.38672,1.22461 -5.93001,1.32395 -6.12094,2.916 -0.82031,6.84375 5.14579,3.81313 7.23361,4.40506 9.07031,2.56836 0.63204,-0.63204 2.8219,-1.42144 4.86719,-1.7539 4.10823,-0.66778 5.56986,-2.70958 2.71679,-3.79493 -1.00817,-0.38355 -2.68661,-1.77485 -3.72851,-3.09179 -0.9777,-1.23579 -1.9589,-1.8839 -3.71875,-1.9961 z M 696.95508,221.5 C 687.5475,221.5 684,223.07859 684,227.26758 c 0,1.75456 0.46871,1.88968 4.5,1.28515 4.16243,-0.62419 4.5,-0.51257 4.5,1.50196 0,1.79907 0.39138,2.05608 2.25,1.47851 1.2375,-0.38456 4.38704,-1.08347 6.99805,-1.55468 C 708.06317,228.92905 709,228.38422 709,226.0625 709,222.58114 706.14394,221.5 696.95508,221.5 Z m -252.82031,19.26953 5.68164,0.56641 c 3.12561,0.31163 8.15859,1.07312 11.18359,1.6914 6.29385,1.28643 15.1596,2.46487 29.5,3.92383 5.49993,0.55956 12.25,1.36997 15,1.80078 l 5,0.78321 -0.125,5.48242 c -0.14683,6.4616 -1.89449,22.8306 -2.66797,24.98242 -0.29654,0.825 -0.81116,2.7375 -1.14258,4.25 l -0.60351,2.75 -16.73047,0.11914 c -9.20195,0.0651 -18.08047,0.41229 -19.73047,0.77148 l -3,0.65235 5.5,5.97851 c 3.025,3.28818 5.725,6.20352 6,6.47852 1.83102,1.83102 9.1148,11.18143 11.29492,14.5 4.95918,7.54874 5.89354,11.85009 6.19727,28.5 0.30662,16.80897 1.25342,26.72568 2.63281,27.57812 0.48105,0.2973 0.875,1.61694 0.875,2.9336 0,2.39219 0.59951,4.15279 4.19922,12.34766 1.05332,2.39787 1.77614,4.47517 1.60742,4.61523 -1.8679,1.55055 -6.41796,2.98994 -11.77344,3.72461 -9.83922,1.34976 -30.26343,1.88446 -32.5332,0.85156 -1.1,-0.50058 -3.68172,-0.94177 -5.73633,-0.98047 -5.35196,-0.1007 -24.46006,-4.82786 -29,-7.17383 C 424.80863,387.40298 423.48705,387 422.82617,387 420.88357,387 397.7746,375.24544 394.5,372.5918 l -3,-2.42969 1.95898,-3.83203 C 394.53592,364.22325 396.16257,361.375 397.07422,360 404.122,349.37009 427,301.70887 427,297.65625 c 0,-0.69041 0.39686,-1.68453 0.88281,-2.20703 0.48594,-0.5225 1.86626,-3.87422 3.06641,-7.44922 1.20015,-3.575 2.55074,-7.4 3.00195,-8.5 0.45121,-1.1 1.31508,-3.8 1.91992,-6 0.60485,-2.2 2.0074,-6.88768 3.11524,-10.41602 1.10785,-3.52826 2.01367,-7.21789 2.01367,-8.20117 0,-0.98329 0.42056,-2.82262 0.93555,-4.08593 0.51498,-1.26338 1.22152,-4.03624 1.56836,-6.16211 z m 76.83398,16.60938 c 0.7983,-0.0689 1.70625,-0.0348 2.53125,0.11718 4.15058,0.76475 27.64172,3.61303 45,5.45703 5.49993,0.5843 14.05,1.54202 19,2.12696 4.95,0.58495 12.6,1.4522 17,1.92773 4.4,0.47552 12.16257,1.34257 17.25,1.92774 5.08743,0.58517 13.1875,1.49113 18,2.01367 28.3107,3.07398 35.57751,4.21011 37.5,5.85937 1.34781,1.1563 1.75,3.06326 1.75,8.29883 0,3.73888 -0.52187,7.94489 -1.16016,9.3457 -1.04507,2.29369 -1.72552,2.54688 -6.83398,2.54688 -3.12005,0 -5.94001,-0.26814 -6.26758,-0.5957 -0.32757,-0.32757 -4.56637,-0.98891 -9.41797,-1.47071 -4.85153,-0.48181 -12.87031,-1.35349 -17.82031,-1.93554 -4.95,-0.58205 -13.05,-1.5054 -18,-2.05274 -15.25119,-1.6864 -24.82405,-2.79967 -29,-3.37109 -2.2,-0.30105 -6.475,-0.80475 -9.5,-1.11914 -3.025,-0.3144 -9.1,-0.98403 -13.5,-1.48828 -4.4,-0.50425 -12.27507,-1.38903 -17.5,-1.9668 -19.71689,-2.18028 -25.62912,-2.90994 -30,-3.69922 -4.47694,-0.80843 -4.4988,-0.83262 -4.37109,-4.80664 0.22676,-7.05648 2.0209,-15.65847 3.46679,-16.61914 0.38622,-0.2566 1.07475,-0.42716 1.87305,-0.49609 z m 214.91602,10.22461 c -17.181,0.17131 -30.00903,1.63503 -31.22071,3.5625 -0.75851,1.20653 -0.68626,2.10304 0.26563,3.25 1.52716,1.84004 6.70537,2.03312 15.63281,0.58398 3.3345,-0.54127 10.22823,-1.07304 15.31836,-1.18164 10.24615,-0.2186 13.39015,-1.45068 11.50391,-4.50977 -0.96742,-1.56882 -2.49152,-1.79487 -11.5,-1.70507 z m 35.52929,18.52539 c 0.17828,0.20449 1.0843,3.84066 2.01367,8.08007 2.06875,9.43617 6.61822,18.81053 10.86133,22.38086 l 3.17383,2.66993 -3.63867,3.14648 c -2.00116,1.72986 -10.05947,6.50816 -17.9082,10.61914 -16.0345,8.39837 -20.17773,11.71664 -21.83594,17.48633 -0.63044,2.19357 -1.55399,11.41335 -2.05078,20.48828 -0.98709,18.0311 -2.93145,26.56116 -7.38672,32.40234 -1.40121,1.83707 -4.1006,5.91655 -5.99805,9.06641 l -3.44922,5.72656 -2.05664,-2.05664 c -6.34928,-6.34928 -9.80453,-20.00068 -13.01172,-51.39258 -0.73161,-7.16099 -1.38908,-9.40227 -3.61328,-12.31836 -3.81076,-4.99617 -9.35638,-8.76421 -18.31445,-12.44921 -11.56161,-4.75607 -15.72679,-7.46356 -17.61719,-11.44727 -1.64627,-3.46927 -1.629,-3.60284 0.89063,-6.90625 1.41291,-1.85251 5.03258,-9.14478 8.04296,-16.20508 3.01045,-7.0603 6.09421,-13.45749 6.85352,-14.2168 1.17408,-1.17401 2.0965,-0.83431 6.16797,2.27344 11.27009,8.60264 22.33662,12.04198 35.96289,11.17774 14.51891,-0.92086 24.95261,-4.9185 36.29492,-13.90821 3.46218,-2.74399 6.44086,-4.82167 6.61914,-4.61718 z m 13.39258,3.64257 c 4.4076,0.21896 12.24059,1.25015 26.19336,3.22657 10.48168,1.48474 20.19249,2.77606 29.20898,3.88476 4.23943,0.52129 8.06443,1.16512 8.5,1.43164 0.43558,0.26651 3.94102,0.62976 7.79102,0.80664 3.85,0.17687 7.225,0.61956 7.5,0.98438 0.275,0.36482 3.2,0.91727 6.5,1.22656 3.3,0.30929 9.4875,1.03602 13.75,1.61524 4.2625,0.57922 11.2375,1.51699 15.5,2.08398 4.2625,0.567 10.9,1.46217 14.75,1.99023 3.85,0.52806 10.375,1.39966 14.5,1.9375 27.02445,3.52362 29.78273,4.03488 30.39062,5.61914 0.47735,1.24395 -1.78486,4.68912 -9.31054,14.17188 -2.35902,2.9725 -4.08024,3.91658 -5.16406,2.83398 -0.22917,-0.22889 -3.11602,-0.52385 -6.41602,-0.65429 -3.3,-0.13043 -6.45,-0.55903 -7,-0.95313 -0.55,-0.39411 -4.15,-1.03617 -8,-1.42773 -3.85,-0.39155 -9.925,-1.09598 -13.5,-1.56445 -15.2785,-2.00242 -23.87272,-3.15985 -29.5,-3.97461 -8.00651,-1.15934 -19.86562,-2.79389 -28.75,-3.96289 -3.9875,-0.52469 -10.4,-1.42681 -14.25,-2.00391 -3.85,-0.57709 -10.6,-1.52597 -15,-2.10938 -4.4,-0.58342 -11.15,-1.50149 -15,-2.03906 -3.85,-0.53757 -9.25,-1.21553 -12,-1.50586 -2.75,-0.29033 -5.99724,-1.01414 -7.2168,-1.60937 -4.19023,-2.04515 -10.01869,-13.78361 -9.11718,-18.36328 0.25016,-1.27084 1.23308,-1.8635 5.64062,-1.64454 z m 217.76566,3.52735 c 1.5664,0.2315 2.989,0.72502 4.0976,1.45312 0.883,0.57986 0.5819,6.54087 -1.2304,24.25782 -1.3215,12.91938 -2.4119,23.82773 -2.4219,24.24023 -0.01,0.4125 -2.2056,0.75 -4.88088,0.75 h -4.86524 l -0.63476,-4.63867 c -1.23303,-8.9959 -0.79921,-12.37872 2.01562,-15.7168 5.96946,-7.07892 7.31526,-16.95168 2.79688,-20.50586 -1.4026,-1.10329 -2.98815,-2.15165 -3.52344,-2.33008 -0.54575,-0.18191 -0.68919,-1.73764 -0.32812,-3.54297 0.53533,-2.6766 1.21133,-3.32742 4.01562,-3.85351 1.68241,-0.31562 3.39262,-0.34478 4.95902,-0.11328 z m 19.4629,0.70312 c 2.4613,0.19533 4.9474,0.97384 6.3769,2.24805 l 2.5254,2.25 -3.0098,10.5 c -3.2955,11.49825 -6.9277,30.94931 -6.9277,37.09961 0,3.39515 -0.2916,3.89285 -2.25,3.84375 -1.2375,-0.031 -3.825,-0.59969 -5.75,-1.26367 -4.1631,-1.43597 -4.0692,1.20312 -1.0469,-29.17969 1.7614,-17.70731 2.6505,-23.28764 3.8594,-24.25 1.326,-1.05553 3.7613,-1.44338 6.2227,-1.24805 z m -37.54692,0.45703 c 0.92242,0.1079 1.67368,0.36905 2.11133,0.80664 0.39646,0.39645 0.19659,2.46956 -0.44336,4.60547 -1.14485,3.82116 -1.29204,3.91467 -9.16016,5.89063 -4.3981,1.10453 -7.99609,1.81785 -7.99609,1.58398 0,-1.47517 4.23966,-8.25042 6.45898,-10.32226 1.95908,-1.82884 6.26206,-2.88815 9.0293,-2.56446 z M 1040.5449,300 c 5.3536,0 8.8655,3.90813 8.1699,9.09375 -0.2908,2.16803 -1.8847,6.07118 -3.541,8.67383 -5.5742,8.75899 -7.564,21.46354 -4.6972,29.98242 0.7367,2.1893 0.5708,2.25 -6.1504,2.25 h -6.9082 l 0.7265,-8.25 c 0.8556,-9.71006 3.0315,-20.67989 6.416,-32.36133 1.3418,-4.6301 2.4395,-8.63767 2.4395,-8.90429 0,-0.26669 1.5949,-0.48438 3.5449,-0.48438 z M 993,310.11133 c 0.66824,0.21272 0.58844,0.74657 0.31836,1.77929 -0.86007,3.2889 -4.30888,5.47401 -14.24805,9.0293 -5.46303,1.9542 -9.66998,4.09659 -10.57226,5.38477 -3.48173,4.97081 -0.66921,14.67641 5.69336,19.64648 5.19162,4.05549 9.40139,5.13067 19.10937,4.88477 8.39702,-0.2127 9.72072,0.0225 15.18362,2.69726 5.5765,2.73046 6.7866,2.93252 17.75,2.94922 6.4709,0.01 11.7655,0.3442 11.7656,0.74414 3e-4,1.25575 -4.7362,13.37297 -6.1504,15.73438 -0.7424,1.23983 -4.6898,3.79168 -8.7734,5.66992 -4.0836,1.87823 -9.3877,5.02177 -11.7852,6.98633 -5.4184,4.43986 -10.0693,12.3832 -10.9101,18.63281 -0.3515,2.6125 -1.14317,4.72019 -1.75981,4.68359 -1.43728,-0.0852 -14.48479,-5.75347 -21.62109,-9.39257 -6.60623,-3.36886 -14,-8.53489 -14,-9.78125 0,-0.49517 1.35,-2.86158 3,-5.25977 2.39497,-3.48096 3.0067,-5.43275 3.0293,-9.67969 0.0247,-4.64218 -0.92483,-7.23087 -7.44532,-20.32031 -4.10964,-8.24993 -7.72319,-16.21003 -8.03125,-17.68945 -0.46725,-2.24395 0.50747,-3.94636 5.88282,-10.27149 3.54387,-4.17005 6.704,-8.40567 7.02343,-9.41211 0.69061,-2.17583 12.98063,-6.06089 21.73243,-6.86914 2.7241,-0.25157 4.14035,-0.3592 4.80859,-0.14648 z m -198.45898,11.04492 5.97851,1.40039 c 3.28877,0.77079 15.90879,2.53818 28.04297,3.92774 38.2901,4.38477 45.31066,7.4769 53.4082,23.51562 5.08592,10.07355 9.29849,23.59215 14.64649,47 4.65943,20.39426 7.24516,29.99629 10.41992,38.69922 l 1.89648,5.19726 -3.4414,7.55079 c -4.85766,10.6593 -11.84252,30.25953 -15.0625,42.26757 -2.25213,8.39864 -2.51072,10.48314 -1.46094,11.74805 2.88439,3.47547 4.74125,1.16294 7.57813,-9.4375 3.21116,-11.99925 7.65873,-24.86973 13.10351,-37.9082 4.28828,-10.26892 4.49213,-10.53998 18.59375,-25.03125 7.84109,-8.05779 17.82653,-19.1737 22.19141,-24.70117 l 7.9375,-10.05079 7.84765,5.25391 c 6.88843,4.61069 21.62878,11.53017 33.02539,15.50391 2.06021,0.71835 3.98751,2.07021 4.28321,3.00195 0.5577,1.75731 -11.95861,36.4469 -20.71289,57.40625 -11.90735,28.50827 -24.75929,49.58964 -37.49219,61.5 -12.14554,11.36095 -28.32547,20.08037 -42.67578,22.99609 -8.86855,1.80197 -12.10587,0.77651 -18.58008,-5.88086 -10.1274,-10.4138 -19.68274,-30.65406 -26.76953,-56.70117 -3.74144,-13.75136 -3.78618,-14.12518 -3.73438,-31.91406 0.0445,-15.27393 0.40193,-19.43876 2.36133,-27.5 4.58131,-18.84815 4.61316,-19.04901 3.125,-19.96875 -2.30809,-1.42647 -3.73139,-0.1349 -6.37695,5.78516 -9.152,20.47984 -14.34527,44.79224 -16.5918,77.68359 -1.13562,16.62656 -3.54065,25.21967 -11.71484,41.83398 -4.05262,8.23709 -5.35243,11.88732 -4.95508,13.91602 0.29624,1.5125 0.43625,2.75477 0.3125,2.75977 -0.12375,0.005 -6.72501,1.11681 -14.66992,2.4707 -7.94492,1.35389 -14.53891,2.36191 -14.65235,2.24023 -0.11344,-0.12168 3.1596,-17.32084 7.27344,-38.2207 7.18758,-36.51539 7.62059,-40.26783 4.75195,-41.17383 -2.81022,-0.88756 -4.00375,3.40828 -11.33398,40.77344 l -7.72266,39.36719 -4.11523,0.70312 c -2.26356,0.38642 -10.08844,1.1804 -17.38672,1.76563 C 754.57087,569.52079 745.58658,570 741.90234,570 h -6.69922 l -0.63867,-7.25 c -1.17942,-13.38342 -2.70576,-25.11741 -6.08007,-46.75 -5.04684,-32.35453 -5.80214,-40.69211 -5.19922,-57.44336 0.78048,-21.68466 4.17176,-32.57123 15.55078,-49.93359 6.67327,-10.18227 8.09469,-15.11836 9.25586,-32.12305 1.45356,-21.28684 2.40656,-26.6711 5.10937,-28.86328 1.26385,-1.02507 5.89883,-3.66768 10.29883,-5.8711 13.08518,-6.55272 21.69976,-11.87189 26.50977,-16.37109 z m 259.03908,2.04297 c 1.2997,-0.0774 2.646,0.90066 4.5195,2.90625 4.4033,4.71364 3.8884,10.84023 -1.3984,16.64453 -7.3928,8.11697 -14.3101,-7.0205 -7.3672,-16.12305 1.6916,-2.21778 2.9464,-3.35035 4.2461,-3.42773 z m -69.10744,3.125 c 1.04522,0.17142 1.10426,1.87007 1.33203,8.63867 0.27526,8.1801 0.13021,9.03711 -1.51563,9.03711 -4.64143,0 -12.36702,-8.74977 -10.96094,-12.41406 0.63109,-1.64458 4.89203,-3.85921 9.72657,-5.05469 0.61036,-0.15093 1.06956,-0.26417 1.41797,-0.20703 z M 867,327.08984 c 1.375,-0.39056 4.49902,-0.34129 6.94336,0.10743 2.44434,0.44873 13.01941,1.92728 23.5,3.28711 10.48059,1.35976 22.20664,2.91765 26.05664,3.46093 3.85,0.54328 9.475,1.25671 12.5,1.58594 9.87428,1.07469 12.90885,2.24303 13.63672,5.25391 0.36088,1.49272 2.90888,6.98991 5.66406,12.21484 9.50996,18.03489 9.91794,19.01769 9.28516,22.39062 -0.63489,3.38425 -6.0832,11.75309 -18.31836,28.13672 -0.42221,0.56536 -2.56758,3.05417 -4.76758,5.5293 -2.2,2.47514 -5.49561,6.28627 -7.32422,8.4707 -1.8286,2.1845 -6.4656,7.21186 -10.30469,11.17188 -7.70237,7.94499 -10.24657,9.38599 -11.66211,6.59961 -2.12302,-4.17913 -6.53713,-19.31552 -8.25195,-28.29883 -0.68242,-3.575 -1.62758,-6.92672 -2.09961,-7.44922 -0.47204,-0.5225 -0.86214,-2.0975 -0.86914,-3.5 -0.007,-1.4025 -0.68379,-5.02578 -1.5039,-8.05078 -0.82018,-3.025 -1.73405,-6.81231 -2.03126,-8.41602 -0.29713,-1.60365 -0.84604,-3.40372 -1.2207,-4 -0.37466,-0.59629 -0.82288,-2.20898 -0.99609,-3.58398 -0.85046,-6.75115 -8.50604,-24.7644 -13.45117,-31.65039 -2.91037,-4.05262 -13.47315,-12.23709 -16.06641,-12.44922 -0.67024,-0.0548 -0.0937,-0.42 1.28125,-0.81055 z m -204.8457,0.94532 c 0.36024,-0.0196 1.81013,1.9349 3.2207,4.34179 3.04559,5.19691 8.81177,9.03051 20.54688,13.66211 10.142,4.00293 16.62829,9.57806 17.40624,14.96094 0.27822,1.925 0.98223,8.91135 1.56446,15.52539 1.86912,21.23331 8.32677,40.64592 15.13281,45.49219 l 2.69336,1.91797 -2.34766,8.10547 c -5.24156,18.09684 -5.46221,37.46141 -0.7832,68.66406 6.29399,41.97222 7.36019,49.86648 8.00781,59.26953 L 728.28516,570 l -8.39258,-0.008 c -4.61612,-0.004 -11.41753,-0.29139 -15.11524,-0.64063 -6.64702,-0.62781 -6.74726,-0.68267 -8.83984,-4.74414 -2.79499,-5.4247 -6.34021,-9.15475 -12.48633,-13.13867 l -5.05078,-3.27344 -2.82227,-30.84765 c -1.55268,-16.96612 -3.23438,-31.63516 -3.73632,-32.59766 -0.50195,-0.9625 -1.5156,-1.75 -2.25391,-1.75 -3.60906,0 -3.66391,2.16982 -0.81445,32.11719 1.95349,20.53101 2.46581,29.46956 1.70117,29.66992 -0.60187,0.15772 -3.76822,-0.41142 -7.03516,-1.26367 -3.26688,-0.85226 -9.85484,-2.07054 -14.64062,-2.70899 l -8.70117,-1.16211 -1.92578,-4.57617 c -5.1468,-12.23661 -7.64874,-22.37896 -9.75977,-39.55469 -3.14598,-25.5962 -9.41521,-45.48829 -19.4043,-61.57812 C 603.45707,425.00249 601.4247,422.5 599.71484,422.5 c -3.90209,0 -3.05381,3.37235 3.67774,14.61914 l 6.56836,10.97266 -8.75,8.75195 c -8.90058,8.90058 -17.84045,19.39055 -24.69336,28.97461 l -3.80274,5.31641 -14.69922,-0.69922 c -13.62911,-0.64875 -14.75064,-0.56858 -15.39453,1.10937 -1.29097,3.3644 1.42784,4.35941 14.63868,5.35938 l 12.74609,0.96484 9.24805,7.75195 C 591.69385,516.0496 620,544.38983 620,546.41602 c 0,0.89288 -1.07506,3.32537 -2.38867,5.40625 -4.81493,7.62728 -9.84448,18.68271 -13.66602,30.03906 -2.15398,6.40085 -3.92169,12.36927 -3.92969,13.26172 -0.008,0.89245 -2.03143,3.47995 -4.49414,5.75 -2.46264,2.26998 -4.62343,4.12695 -4.80273,4.12695 -0.1793,0 -2.61344,-1.13853 -5.4082,-2.53125 -19.01718,-9.47666 -68.5295,-66.10082 -81.29297,-92.96875 -9.08591,-19.12648 -4.21107,-36.58154 17.5957,-63 11.91513,-14.43499 19.0021,-24.75452 22.875,-33.3125 1.41578,-3.12842 3.87638,-8.1625 5.46875,-11.1875 1.59236,-3.025 6.52084,-14.3938 10.95117,-25.26367 4.43041,-10.86987 8.6917,-20.99494 9.47071,-22.5 2.28723,-4.41908 10.50567,-11.89488 16.70898,-15.20117 11.03123,-5.87962 12.71569,-6.19095 38.41211,-7.08399 15.58693,-0.5417 26.10323,-1.36842 30,-2.35742 3.3,-0.83755 6.29406,-1.53899 6.6543,-1.55859 z m -49.71289,126.55468 2.27343,7.45508 c 3.23926,10.62442 6.06758,24.20436 7.29297,35.02149 1.54758,13.66117 3.71957,23.25199 7.65235,33.77539 1.91988,5.13739 3.28763,9.54245 3.03906,9.79101 -0.24856,0.24856 -1.97052,0.6696 -3.82617,0.9336 -3.20551,0.45603 -3.89376,-0.0748 -13.79883,-10.63477 -9.71524,-10.35759 -24.3361,-24.16742 -33.51172,-31.65234 -3.73737,-3.04873 -3.86655,-3.34203 -2.56641,-5.77149 2.46432,-4.60455 17.51815,-22.83455 25.56836,-30.96289 z m 27.36132,92.24414 c 2.12874,-0.11991 4.34301,0.006 7.25782,0.34375 17.89205,2.07283 32.92496,7.7422 39.33203,14.83399 4.49413,4.97447 4.57587,6.24213 0.35742,5.5332 -1.7875,-0.30039 -5.95,-0.98046 -9.25,-1.50976 -3.3,-0.5293 -7.65369,-1.25655 -9.67578,-1.61719 C 662.6047,563.4871 659,567.09717 659,573.25781 c 0,5.11724 3.00231,10.34027 10.89062,18.94727 6.48511,7.07587 10.3577,9.51462 17.16016,10.80469 6.34959,1.20412 8.33815,2.82059 10.5332,8.56835 2.04505,5.35489 1.28241,9.42188 -1.76562,9.42188 -4.93801,0 -15.32636,-7.51122 -29.53125,-21.35352 -8.70747,-8.48522 -10.43938,-9.76545 -11.75,-8.67773 -2.8222,2.34222 -1.59978,4.51 7.71289,13.67187 11.56026,11.37305 18.27322,16.59069 26.99023,20.98047 4.82418,2.42942 7.13321,4.23125 7.85547,6.13086 1.67073,4.39436 -0.13656,6.87715 -5.60547,7.69727 -4.11128,0.61653 -5.15658,0.36317 -8.77148,-2.125 -6.65545,-4.58107 -21.13774,-18.84247 -27.28711,-26.8711 C 652.29213,606.35428 649.36806,603 648.93359,603 648.00547,603 645,605.86641 645,606.75195 c 0,0.33525 2.47018,3.83304 5.48828,7.77344 5.97925,7.80638 20.23857,21.91528 27.76953,27.47461 3.71601,2.74315 4.68785,4.04061 4.49219,6 -0.2335,2.33823 -0.5909,2.49065 -5.50977,2.36133 -4.07452,-0.10713 -6.07928,-0.76426 -8.90039,-2.91602 -6.68366,-5.09786 -20.20543,-19.42762 -24.50976,-25.97461 -4.31012,-6.55563 -6.50118,-7.777 -8.85938,-4.93554 -1.97728,2.38249 6.44582,13.90894 19.7793,27.0664 8.7063,8.59141 11.25,11.70085 11.25,13.75 0,3.43982 -1.99246,3.43699 -9.05273,-0.0137 -11.95354,-5.84213 -29.48519,-26.82385 -44.35938,-53.09375 l -5.75391,-10.16406 1.66211,-5.78906 c 2.41266,-8.40554 10.04222,-25.85192 14.31446,-32.73243 3.58456,-5.77305 3.87551,-5.98801 10.25,-7.59179 2.57019,-0.64666 4.61351,-1.01291 6.74218,-1.13282 z M 817.25,567.83789 c 1.40862,0.29952 1.35771,1.4033 1.49805,3.66211 0.13668,2.2 0.72062,6.57739 1.29687,9.72852 1.38821,7.59104 0.42484,9.29984 -5.75781,10.20312 -2.63265,0.38462 -7.26211,1.12477 -10.28711,1.64648 -8.65624,1.49311 -20.78618,2.91402 -29.5,3.45508 -4.4,0.2732 -12.12625,0.94083 -17.16992,1.48242 C 746.1865,599.21233 695.29255,599.2 692.5,598 c -1.1,-0.47269 -3.26941,-0.89109 -4.82031,-0.92969 -3.74484,-0.0933 -10.65539,-4.96052 -15.36719,-10.82422 -2.09727,-2.60994 -4.08194,-4.97109 -4.41211,-5.24609 -2.61354,-2.17688 -3.86861,-9.50993 -1.74805,-10.2168 0.63426,-0.21142 3.44683,-0.0132 6.25,0.44141 39.30676,6.37401 85.82125,5.60589 134.59766,-2.22266 5.97362,-0.95876 8.84138,-1.46358 10.25,-1.16406 z m 8.39258,26.98438 4.7539,12.22461 c 12.6715,32.59886 21.15204,66.88429 24.97071,100.95312 2.44979,21.85618 2.59801,24.88498 1.29687,26.25 -0.65494,0.68709 -2.01202,2.53377 -3.01758,4.10352 -4.54374,7.09314 -27.98207,13.34114 -58.64648,15.63281 -16.55895,1.23752 -20.90742,1.16659 -33,-0.53711 -5.22493,-0.73613 -14.72726,-1.36403 -21.11523,-1.39453 L 729.27148,752 727.99805,734.75 c -1.74604,-23.67978 -0.80369,-71.07843 1.91211,-96.25 1.12746,-10.44993 2.05911,-22.22356 2.07031,-26.16406 l 0.0195,-7.16602 7.25,-0.56054 c 3.9875,-0.30851 13.32507,-0.83052 20.75,-1.16016 7.42493,-0.32964 14.44821,-0.82392 15.60742,-1.09766 2.00114,-0.47257 2.14328,-5e-5 2.79297,9.32617 1.9735,28.32974 8.13924,83.64657 10.27149,92.14844 0.48537,1.9356 1.02292,2.21517 3.20312,1.66797 1.4412,-0.36172 2.7778,-0.81296 2.96875,-1.00391 0.19095,-0.19095 -0.57347,-6.79118 -1.69727,-14.66796 -3.69452,-25.89555 -9.56749,-86.2409 -8.55859,-87.94141 0.20186,-0.34023 3.64092,-0.93895 7.64063,-1.33203 6.26436,-0.61566 19.92503,-2.90435 30.34375,-5.08399 z M 702.125,604.56641 c 0.20635,-0.19256 5.71054,-0.10918 12.23242,0.18554 l 11.85938,0.53711 -0.69141,9.60547 c -0.37945,5.28316 -1.54579,17.93054 -2.59375,28.10547 -1.51573,14.7166 -1.89537,25.96462 -1.85547,55 0.0276,20.07486 0.42116,40.325 0.875,45 0.45383,4.675 0.74335,8.59443 0.64453,8.70898 -0.0988,0.11455 -10.28467,0.421 -22.63672,0.68164 -34.6049,0.73041 -41.91937,-0.65189 -66.00586,-12.4746 -26.34899,-12.93331 -36.63049,-15.68201 -48.42578,-12.94727 -2.18448,0.50649 -4.16337,0.72921 -4.39843,0.49414 -0.84873,-0.84873 3.17626,-22.228 6.39453,-33.96289 3.93171,-14.33661 7.93472,-24.6564 14.58203,-37.60352 4.88441,-9.51351 16.34724,-26.92079 17.69531,-26.87109 0.38488,0.0142 2.27422,2.34738 4.19922,5.18359 4.70351,6.93011 16.99133,19.87937 23.1582,24.40625 2.75219,2.02029 7.5538,4.7174 10.67188,5.99415 4.70919,1.92822 5.63869,2.71003 5.48437,4.60742 -0.10217,1.25629 -0.96813,10.64213 -1.92383,20.85937 -0.95562,10.21724 -1.44881,19.32981 -1.0957,20.25 0.87375,2.27695 4.39851,2.11595 5.66992,-0.25976 0.56935,-1.06384 1.03516,-4.2275 1.03516,-7.0293 0,-8.55102 2.9679,-34.18832 4.66406,-40.28711 l 1.59961,-5.75 h 5.23242 c 6.36695,0 10.1382,-2.53363 11.05664,-7.42969 0.55923,-2.98086 1.06222,-3.4138 4.64258,-3.98633 5.75477,-0.92016 9.80469,-5.23224 9.80469,-10.4414 0,-2.2065 -0.44795,-5.19117 -0.99609,-6.63281 -0.74171,-1.95085 -0.61382,-3.36173 0.5,-5.51563 1.94685,-3.76492 1.89904,-8.94736 -0.12891,-14.01562 -0.89385,-2.23395 -1.45635,-4.21954 -1.25,-4.41211 z m -86.60938,133.25781 11.89063,6.21094 C 651.52117,756.63411 661.74006,759 692.0625,759 h 20.84375 l -0.55469,5.25 c -0.93696,8.87502 -4.28691,24.55627 -8.49218,39.75 -2.20731,7.97493 -6.24672,22.60007 -8.97657,32.5 -2.72979,9.89993 -6.3368,24.52507 -8.01562,32.5 -2.91544,13.84936 -3.09073,16.04811 -3.88672,49 -1.06446,44.06617 -1.75427,48.63318 -14.28906,94.5254 -3.00067,10.986 -6.2805,24.548 -7.28907,30.1387 l -1.83398,10.166 -11.03516,0.5644 c -6.06856,0.3102 -17.60594,0.7298 -25.63867,0.9336 l -14.60547,0.3711 -1.22461,-13.5996 c -0.67362,-7.4797 -1.47406,-24.6722 -1.77929,-38.2051 -0.7656,-33.94455 1.10193,-58.15032 7.3164,-94.81638 l 2.61524,-15.42382 -1.85547,-22.57618 c -3.18192,-38.74979 -2.36695,-110.39403 1.46484,-128.91601 z m 230.99024,13.5039 c 0.008,0.0941 -0.27368,14.79702 -0.62695,32.67188 -0.53378,27.00735 -1.00799,34.52805 -2.81055,44.5 -5.0166,27.75235 -5.29325,30.4567 -4.6582,45.5 0.33666,7.97493 1.49872,19.22507 2.58203,25 9.33133,49.74433 10.61973,63.09034 9.41601,97.5 -1.06694,30.4997 -1.14218,52.2501 -0.20508,59.25 0.38658,2.8875 0.38658,5.1978 0,5.1348 -0.38652,-0.063 -11.95319,-1.7575 -25.70312,-3.7676 l -25,-3.6563 -1.72266,-11.9804 c -2.06207,-14.3411 -5.38899,-25.2776 -15.91211,-52.31253 -14.42876,-37.06871 -16.16401,-47.98616 -13.36914,-84.11719 2.38774,-30.86695 1.75061,-36.89433 -6.64062,-62.91406 -9.26737,-28.73649 -15.90172,-57.82261 -17.52539,-76.83008 l -0.61328,-7.19141 5.89062,0.52344 c 3.24053,0.28819 8.33773,0.93824 11.32617,1.44336 17.38159,2.93786 55.72828,-0.27695 77.0625,-6.46094 4.67257,-1.35433 8.50177,-2.387 8.50977,-2.29297 z M 657.90039,1057.959 c 0.4632,0.2977 1.13014,4.366 1.48438,9.041 1.00819,13.3061 1.64882,18.3398 2.60546,20.5 0.48718,1.1 1.10563,3.575 1.375,5.5 0.54411,3.8885 1.65175,8.628 4.03907,17.2988 0.87812,3.1893 1.5957,7.9583 1.5957,10.5977 0,4.4758 -0.35355,5.1423 -5.25,9.8926 -5.29078,5.1329 -13.00314,11.0568 -22.88672,17.58 -6.67142,4.4031 -11.2534,5.624 -32.36328,8.627 -3.85,0.5477 -10.375,1.2416 -14.5,1.541 -7.06741,0.5131 -7.67301,0.3911 -10.5,-2.1035 -15.51711,-13.693 -20.47493,-20.0178 -20.49023,-26.1426 -0.01,-4.0132 0.55127,-4.8011 12.09961,-17 6.66022,-7.0355 13.82389,-15.3011 15.91992,-18.3691 6.97877,-10.215 11.9707,-19.7278 11.9707,-22.8145 0,-1.0941 0.38936,-2.2293 0.86523,-2.5234 0.47587,-0.2941 1.12866,-2.1611 1.45118,-4.1485 1.03771,-6.394 1.14359,-6.43 20.05664,-6.498 9.42009,-0.034 20.40301,-0.3897 24.40625,-0.791 4.00318,-0.4012 7.65788,-0.4853 8.12109,-0.1875 z m 141.46484,0.8008 7.06836,0.623 c 3.88685,0.3422 10.21641,1.0893 14.06641,1.6602 3.85,0.571 10.15,1.4594 14,1.9746 3.85,0.5152 9.42602,1.284 12.39062,1.709 l 5.39063,0.7734 3.78711,7.1172 c 4.32507,8.1281 8.25819,14.292 16.83789,26.3828 17.74165,25.0022 18.09375,25.59 18.09375,30.2969 0,2.4519 -0.63858,5.9754 -1.41797,7.8301 -3.0562,7.272 -12.09079,17.6965 -19.08203,22.0136 -2.63144,1.6249 -5.21148,1.8499 -21,1.8399 -9.90056,-0.01 -18.67495,-0.4473 -19.5,-0.9805 -0.825,-0.5332 -2.4873,-0.9744 -3.69336,-0.9844 -1.90727,-0.013 -8.88045,-3.3869 -10.30664,-4.9863 -0.275,-0.3084 -2.075,-1.8376 -4,-3.3965 -12.49828,-10.1213 -22.0883,-22.0303 -25.06641,-31.1289 -1.54769,-4.7287 -1.53288,-5.3185 0.29297,-11 1.0611,-3.3019 2.31448,-6.9039 2.78516,-8.0039 0.47069,-1.1 1.39799,-3.8 2.06055,-6 0.6625,-2.2 1.55787,-4.9 1.99023,-6 1.06896,-2.7196 2.01243,-7.1973 2.52734,-12 0.23587,-2.2 0.95804,-7.0907 1.60352,-10.8691 z" />
  </g>
</svg>
